<?xml version="1.0" encoding="utf-8"?>
<!-- Generator: Adobe Illustrator 22.1.0, SVG Export Plug-In . SVG Version: 6.00 Build 0)  -->
<svg version="1.1" id="Logo" xmlns="http://www.w3.org/2000/svg" xmlns:xlink="http://www.w3.org/1999/xlink" x="0px" y="0px"
	 viewBox="0 0 1068.3 585.4" style="enable-background:new 0 0 1068.3 585.4;" xml:space="preserve">
<style type="text/css">
	.st0{fill:#FFFFFF;}
	.st1{fill:none;}
	.st2{fill:#6AAAE4;}
</style>
<g>
	<polygon class="st0" points="0,0.7 1068.3,-0.7 166.8,572.5 	"/>
	<polygon class="st0" points="10.4,8.4 171.4,560.4 1041.5,7.1 	"/>
	<polygon class="st0" points="10.4,8.4 171.4,560.4 1041.5,7.1 	"/>
	<g>
		<polygon class="st1" points="-7,8.5 161,584.3 1073,7.1 		"/>
		<g>
			<path class="st2" d="M808.8,155.1l232.7-148L791.6,7.5L808.8,155.1z M894.8,31.5l5.1-1.5l1.7,5.7c1.3-4,3.4-8,9.1-9.6
				c5.5-1.6,9.9,0.3,12.9,3.6c1.3-4.5,4.1-8.5,10-10.3c7.8-2.3,14.1,1.6,16.6,10l6.1,21l-5.1,1.5L945.4,32
				c-1.9-6.6-6.3-9.3-11.8-7.7c-5.1,1.5-8.3,6.6-6.3,13.3l5.7,19.6l-5,1.5l-5.8-20c-1.9-6.4-6.3-9.1-11.7-7.6
				c-5.4,1.6-8.2,7.2-6.3,13.5l5.7,19.4l-5.1,1.5L894.8,31.5z M871.7,37.4c10.2-3,20,2.9,22.8,12.5c2.8,9.7-2.4,20-12.6,23
				c-10.2,3-19.9-2.9-22.8-12.5C856.4,50.7,861.5,40.4,871.7,37.4z M838.8,47c6.4-1.9,11.2-0.4,15.4,2.1l-2.3,4.5
				c-3.5-2-7.2-3.5-11.8-2.1c-6.9,2-10.5,9.4-8.3,16.8c2.2,7.4,9.3,11.7,16.4,9.6c4.3-1.3,7.1-4.4,8.9-8.1l4.1,2.1
				c-2.3,4.8-5.6,8.8-11.9,10.6c-9.9,2.9-19.8-3-22.6-12.6C823.8,60.2,828.9,49.9,838.8,47z M826.2,80.9l2,6.9l-6,1.8l-2-6.9
				L826.2,80.9z"/>
			<path class="st2" d="M573,93.8c-10.1,3-11.5,21-1,56.8l3.6,12.2c10.3,35.2,21.3,50.3,31.4,47.4c10.1-3,11.3-21.7,1-56.8
				l-3.6-12.2C594,105.3,583.2,90.8,573,93.8z"/>
			<path class="st2" d="M231.5,193.4c-9.1,2.7-11.1,17.2-2.4,49.5l29.4-8.6C249.6,203.9,240.9,190.6,231.5,193.4z"/>
			<path class="st2" d="M638.1,82.6c-9.6-19.9,0.9-43.7,22.1-49.9l43.1,97.5l-10.2-75.4c-2.4-17.5,8.4-34.2,25.4-39.1l2.9-0.9
				l44.8,97l-11.4-74.5c-1.7-11.2,2-22.1,9.4-29.9L10.4,8.4l58.8,201.6c4.1-7.2,10.1-11.6,17.3-13.7c17.6-5.1,29.9,7,39.2,16.1
				l-11.4-39.2c-6.4-22,6.2-45.1,28.3-51.6l0,0l57.9,198.6c6.4,22-6.2,45.1-28.3,51.6l-6.6-22.7c-2.6,12.5-6.6,30.2-24.2,35.3
				c-7.2,2.1-14.6,1.7-21.9-2.1l51.9,178L705.2,221L638.1,82.6z M305.2,254.8l-66.6,19.4c10.7,27.7,25.4,34.1,38.5,30.2
				c12.2-3.6,18.5-10.9,27.9-22.5l13.7,35.6c-11.2,13.2-20.6,21.1-35.9,25.5c-33.8,9.9-71.2-12.6-88.3-71.2l-2.6-8.8
				c-17-58.2-1-96.6,29.1-105.4c31.5-9.2,60.6,16.5,78,76L305.2,254.8z M421.3,233.8c10.9,37.2-8,69.5-40.5,79
				c-16.2,4.7-31.3,4.7-44.8,2.4l-12.5-43c17,4.2,29.9,5.6,41.1,2.3c11.8-3.5,20.3-12.2,16.1-26.7l-0.2-0.7
				c-3.2-10.8-8.9-18-35-34.6c-37.3-23.6-53.3-35.5-61.7-64.2l-0.2-0.7c-11.1-37.9,6.6-69.1,39.4-78.7c16.6-4.8,27.1-5.3,38.7-3.2
				l12.5,43c-15-3.7-23.8-4.8-34.6-1.6c-11.5,3.4-19.1,13.7-15.4,26.5l0.2,0.7c3.3,11.2,7.8,14.2,34.1,31.2
				c43.4,28.1,54.8,40.5,62.7,67.6L421.3,233.8z M540.5,221.1c6.4,22-6.2,45.1-28.3,51.6l-37.4-128.2c-3.8-13.2-11.1-19.2-19.2-16.8
				s-11.7,11.5-7.9,24.7l25.8,88.3c6.4,22-6.2,45.1-28.3,51.6L387.3,93.6c-6.4-22,6.2-45.1,28.3-51.6l23,78.8
				c3.1-15.9,8.9-29.8,24.8-34.4c23-6.7,40.6,9.5,48.7,37.2L540.5,221.1z M647.7,141c17,58.2,2.1,95.2-30.4,104.7
				c-32.5,9.5-64.9-13.7-81.9-71.9l-3.2-10.8c-17-58.2-2.1-95.2,30.4-104.7c32.5-9.5,64.9,13.7,81.9,71.9L647.7,141z"/>
			<path class="st2" d="M880.8,68.4c7.4-2.1,10.8-9.5,8.7-16.8c-2.2-7.4-9.3-11.8-16.5-9.7c-7.4,2.1-10.7,9.5-8.6,16.8
				C866.5,66.1,873.6,70.4,880.8,68.4z"/>
			<polygon class="st2" points="766.1,182.2 729.2,103.3 741.6,197.8 			"/>
			<path class="st2" d="M147.8,287.2l-3.6-12.2c-9.4-32.1-20.3-48-30.4-45.1c-10.1,3-9.8,21.9-0.4,54.1l3.6,12.2
				c9.5,32.5,19.2,48.3,29.4,45.4C156.6,338.6,157.3,319.6,147.8,287.2z"/>
		</g>
	</g>
</g>
</svg>
